{"title":"Prison XXX - Marc Dorcel  ***[NEW]*** - 07.September.2014","uid":10997756,"size":1217396604,"categoryP":"porn","categoryS":"movies","magnet":"?xt=urn:btih:a444b99059fc1c0459dd0d967c7580b23c611f01&amp;dn=Prison+XXX+-+Marc+Dorcel++%2A%2A%2A%5BNEW%5D%2A%2A%2A+-+07.September.2014&amp;tr=udp%3A%2F%2Ftracker.openbittorrent.com%3A80&amp;tr=udp%3A%2F%2Fopen.demonii.com%3A1337&amp;tr=udp%3A%2F%2Ftracker.coppersurfer.tk%3A6969&amp;tr=udp%3A%2F%2Fexodus.desync.com%3A6969","seeders":0,"leechers":0,"uploader":"iH2OSO4","files":-1,"time":1410089745,"description":"Lola, a beautiful young woman from a good family, is on the verge of a unique experience that will change her sexuality forever.Imprisoned in a high-security zone in Eastern Europe with other candidates, she chose to spend three days and nights as a prisoner: walls, cells, bars, uniforms, body searches... everything is true to life! Totally at the mercy of a particularly vicious and authoritarian female supervisor, the group will quickly learn what it means to be completely subjected to pleasure.While a man is forced to watch his wife being fucked and raped by another inmate, Lola is at the mercy of four virile males who have been incarcerated for several months and are terribly excited by her gorgeous body. In the precincts of PRISON BLOCK 69, inmates are now only sex objects, serving the sick fantasies of their guards..In a place where even the wildest perversions are permitted, the inmates will have no choice but to go further than they've ever gone before.\n\nSOURCE :  &lt;a href=&quot; http://nuscotower.com/i/pri_55654.html&quot; rel=&quot;nofollow&quot; target=&quot;_NEW&quot;&gt; http://nuscotower.com/i/pri_55654.html&lt;/a&gt;\n\nGeneral                          :Prison.XXX.DVDRiP-PiZDOK.mp4\nFormat                           : MPEG-4\nFormat profile                   : Base Media\nCodec ID                         : isom\nFile size                        : 1.13 GiB\nDuration                         : 1h 37mn\nOverall bit rate                 : 1 663 Kbps\nEncoded date                     : UTC 2014-09-07 08:40:53\nTagged date                      : UTC 2014-09-07 08:40:53\n\nVideo\nID                               : 1\nFormat                           : MPEG-4 Visual\nFormat profile                   : Simple@L1\nFormat settings, BVOP            : No\nFormat settings, QPel            : No\nFormat settings, GMC             : No warppoints\nFormat settings, Matrix          : Default (H.263)\nCodec ID                         : 20\nDuration                         : 1h 37mn\nBit rate mode                    : Variable\nBit rate                         : 1 537 Kbps\nMaximum bit rate                 : 7 098 Kbps\nWidth                            : 856 pixels\nHeight                           : 480 pixels\nDisplay aspect ratio             : 16:9\nFrame rate mode                  : Constant\nFrame rate                       : 25.000 fps\nColor space                      : YUV\nChroma subsampling               : 4:2:0\nBit depth                        : 8 bits\nScan type                        : Progressive\nCompression mode                 : Lossy\nBits/(Pixel*Frame)               : 0.150\nStream size                      : 1.05 GiB (92%)\nWriting library                  : Lavc53.8.0\nEncoded date                     : UTC 2014-09-07 08:40:53\nTagged date                      : UTC 2014-09-07 08:41:37\n\nAudio\nID                               : 2\nFormat                           : AAC\nFormat/Info                      : Advanced Audio Codec\nFormat profile                   : LC\nCodec ID                         : 40\nDuration                         : 1h 37mn\nBit rate mode                    : Variable\nBit rate                         : 124 Kbps\nMaximum bit rate                 : 244 Kbps\nChannel(s)                       : 2 channels\nChannel positions                : Front: L R\nSampling rate                    : 44.1 KHz\nCompression mode                 : Lossy\nStream size                      : 86.6 MiB (7%)\nEncoded date                     : UTC 2014-09-07 08:41:23\nTagged date                      : UTC 2014-09-07 08:41:37\n","torrent":{"xt":"urn:btih:a444b99059fc1c0459dd0d967c7580b23c611f01","amp;dn":"Prison+XXX+-+Marc+Dorcel++%2A%2A%2A%5BNEW%5D%2A%2A%2A+-+07.September.2014","amp;tr":["udp%3A%2F%2Ftracker.openbittorrent.com%3A80","udp%3A%2F%2Fopen.demonii.com%3A1337","udp%3A%2F%2Ftracker.coppersurfer.tk%3A6969","udp%3A%2F%2Fexodus.desync.com%3A6969"],"infoHash":"a444b99059fc1c0459dd0d967c7580b23c611f01","infoHashBuffer":{"type":"Buffer","data":[164,68,185,144,89,252,28,4,89,221,13,150,124,117,128,178,60,97,31,1]},"announce":[],"urlList":[]}}